<?xml version="1.0" encoding="UTF-8"?>
<svg width="202px" height="60px" viewBox="0 0 202 60" version="1.1" xmlns="http://www.w3.org/2000/svg" xmlns:xlink="http://www.w3.org/1999/xlink">
    <!-- Generator: Sketch 46.1 (44463) - http://www.bohemiancoding.com/sketch -->
    <title>Download_on_the_App_Store_Badge_US-UK_135x40</title>
    <desc>Created with Sketch.</desc>
    <defs></defs>
    <g id="Concept" stroke="none" stroke-width="1" fill="none" fill-rule="evenodd">
        <g id="Mobile-app" transform="translate(-140.000000, -487.000000)" fill-rule="nonzero">
            <g id="Hero" transform="translate(0.000000, -1.000000)">
                <g id="cta" transform="translate(140.000000, 473.000000)">
                    <g id="Download_on_the_App_Store_Badge_US-UK_135x40" transform="translate(0.000000, 15.000000)">
                        <path d="M194.22486,59.6710707 L7.05461233,59.6710707 C3.1655503,59.6710707 0,56.4965697 0,52.6104913 L0,7.050137 C0,3.16256675 3.1655503,0 7.05461233,0 L194.22486,0 C198.11243,0 201.389864,3.16256675 201.389864,7.050137 L201.389864,52.6104913 C201.389864,56.4965697 198.11243,59.6710707 194.22486,59.6710707 L194.22486,59.6710707 Z" id="Shape" fill="#A6A6A6"></path>
                        <path d="M199.945824,52.611983 C199.945824,55.7685827 197.388918,58.3254881 194.226352,58.3254881 L7.05461233,58.3254881 C3.89353736,58.3254881 1.32768132,55.7685827 1.32768132,52.611983 L1.32768132,7.04864523 C1.32768132,3.89353736 3.89353736,1.32768132 7.05461233,1.32768132 L194.22486,1.32768132 C197.388918,1.32768132 199.944332,3.89353736 199.944332,7.04864523 L199.945824,52.611983 L199.945824,52.611983 Z" id="Shape" fill="#000000"></path>
                        <g id="Group" transform="translate(19.012156, 8.950661)" fill="#FFFFFF">
                            <path d="M25.9320948,20.562651 C25.8888332,15.7546544 29.8688937,13.4155485 30.0508904,13.3066488 C27.7968157,10.0202645 24.3030745,9.57123974 23.0753423,9.5354371 C20.1410174,9.22663931 17.2947073,11.2912584 15.799947,11.2912584 C14.2753511,11.2912584 11.9735396,9.56527263 9.49271479,9.61599304 C6.3003125,9.66522168 3.31377541,11.5135331 1.67580452,14.3837116 C-1.70456163,20.2359519 0.816541106,28.8360449 4.05518847,33.566469 C5.67525804,35.8831984 7.56832276,38.4699393 10.046164,38.3789409 C12.4703012,38.2789919 13.3758097,36.8334602 16.301184,36.8334602 C19.1997062,36.8334602 20.050019,38.3789409 22.5770888,38.3207616 C25.1787475,38.2789919 26.8167184,35.9935898 28.3801004,33.6559757 C30.2522803,31.000613 31.0041358,28.3855283 31.0339713,28.2512684 C30.9728085,28.2303835 25.9813234,26.3253846 25.9320948,20.562651 Z" id="Shape"></path>
                            <path d="M21.1584091,6.42359076 C22.462222,4.79307875 23.3543045,2.5748067 23.1066696,0.323715559 C21.219572,0.407255058 18.8595811,1.62902023 17.5005725,3.22372959 C16.2982004,4.62898331 15.2241211,6.93228664 15.5015916,9.09834651 C17.6214064,9.25647484 19.7979087,8.02874256 21.1584091,6.42359076 Z" id="Shape"></path>
                        </g>
                        <g id="Group" transform="translate(62.654624, 26.851982)" fill="#FFFFFF">
                            <path d="M17.3717405,20.1449535 L13.9839154,20.1449535 L12.1281451,14.3135981 L5.67770238,14.3135981 L3.90994691,20.1449535 L0.611628475,20.1449535 L7.00240015,0.292388246 L10.9496415,0.292388246 L17.3717405,20.1449535 Z M11.5687288,11.8670842 L9.89047997,6.68315992 C9.71295853,6.15357917 9.38029231,4.90645379 8.88949776,2.94327556 L8.82982669,2.94327556 C8.63440393,3.78762121 8.31963903,5.03474659 7.88702377,6.68315992 L6.23861044,11.8670842 L11.5687288,11.8670842 L11.5687288,11.8670842 Z" id="Shape"></path>
                            <path d="M33.8066451,12.8113789 C33.8066451,15.2459586 33.1487716,17.1703506 31.8330244,18.5830632 C30.6545208,19.840631 29.1910878,20.468669 27.4442172,20.468669 C25.5586114,20.468669 24.2040781,19.7914024 23.3791255,18.4368691 L23.3194544,18.4368691 L23.3194544,25.9778006 L20.1389864,25.9778006 L20.1389864,10.5423864 C20.1389864,9.01182345 20.0987084,7.44098252 20.021136,5.82986361 L22.8182174,5.82986361 L22.9957389,8.09885607 L23.0554099,8.09885607 C24.1160632,6.3892799 25.7256904,5.53598358 27.8857831,5.53598358 C29.5744744,5.53598358 30.9842035,6.2028078 32.1119867,7.53794801 C33.2427535,8.87457999 33.8066451,10.631893 33.8066451,12.8113789 Z M30.566506,12.9277375 C30.566506,11.534418 30.2532328,10.3857499 29.6237031,9.48173313 C28.935994,8.53893022 28.0125841,8.06752876 26.8549654,8.06752876 C26.0702908,8.06752876 25.3572215,8.33008147 24.7202328,8.84772801 C24.0817524,9.36984988 23.6640549,10.0515919 23.4686321,10.8959375 C23.3701748,11.2897666 23.3209462,11.6119904 23.3209462,11.8655924 L23.3209462,14.2524352 C23.3209462,15.2936954 23.6401864,16.1723519 24.2786669,16.8898966 C24.9171473,17.6074412 25.7465752,17.9654676 26.7669505,17.9654676 C27.9648473,17.9654676 28.8972078,17.5030168 29.564032,16.5810988 C30.232348,15.657689 30.566506,14.4403991 30.566506,12.9277375 Z" id="Shape"></path>
                            <path d="M50.2713853,12.8113789 C50.2713853,15.2459586 49.6135117,17.1703506 48.2962728,18.5830632 C47.119261,19.840631 45.655828,20.468669 43.9089574,20.468669 C42.0233515,20.468669 40.6688182,19.7914024 39.8453575,18.4368691 L39.7856864,18.4368691 L39.7856864,25.9778006 L36.6052183,25.9778006 L36.6052183,10.5423864 C36.6052183,9.01182345 36.5649403,7.44098252 36.487368,5.82986361 L39.2844494,5.82986361 L39.4619708,8.09885607 L39.5216419,8.09885607 C40.5808034,6.3892799 42.1904305,5.53598358 44.3520151,5.53598358 C46.0392146,5.53598358 47.4489436,6.2028078 48.5797104,7.53794801 C49.7060019,8.87457999 50.2713853,10.631893 50.2713853,12.8113789 Z M47.0312462,12.9277375 C47.0312462,11.534418 46.7164813,10.3857499 46.0869515,9.48173313 C45.3992424,8.53893022 44.4788161,8.06752876 43.3197056,8.06752876 C42.5335392,8.06752876 41.8219617,8.33008147 41.1834812,8.84772801 C40.5450008,9.36984988 40.128795,10.0515919 39.9333723,10.8959375 C39.8364068,11.2897666 39.7856864,11.6119904 39.7856864,11.8655924 L39.7856864,14.2524352 C39.7856864,15.2936954 40.1049266,16.1723519 40.7404235,16.8898966 C41.378904,17.6059494 42.2083319,17.9654676 43.2316907,17.9654676 C44.4295875,17.9654676 45.3619479,17.5030168 46.0287722,16.5810988 C46.6970882,15.657689 47.0312462,14.4403991 47.0312462,12.9277375 Z" id="Shape"></path>
                            <path d="M68.6799106,14.5776426 C68.6799106,16.2663339 68.0936423,17.6402603 66.9166305,18.7009136 C65.62326,19.8600241 63.8226854,20.4388335 61.5089397,20.4388335 C59.3727153,20.4388335 57.6601556,20.0271031 56.3638016,19.2021506 L57.1007393,16.5512632 C58.4970424,17.3956089 60.0290971,17.8192735 61.6983953,17.8192735 C62.8962921,17.8192735 63.8286526,17.5477701 64.4984603,17.0077469 C65.1652845,16.4677237 65.4979508,15.7427202 65.4979508,14.8387035 C65.4979508,14.0331441 65.2234638,13.3543856 64.6729982,12.80392 C64.1255161,12.2534544 63.211057,11.7417749 61.9340961,11.2688817 C58.4582562,9.97252769 56.721828,8.07349587 56.721828,5.57626156 C56.721828,3.94425777 57.330473,2.60613401 58.5492546,1.56487383 C59.7635609,0.522121869 61.3836304,0.00149177677 63.4094633,0.00149177677 C65.2160049,0.00149177677 66.7167324,0.316256675 67.9146291,0.944294694 L67.1195121,3.53700272 C66.0006795,2.92835779 64.7356528,2.62403533 63.3199567,2.62403533 C62.2011241,2.62403533 61.3269429,2.90001404 60.7003967,3.44898789 C60.1708159,3.93978244 59.9052797,4.53798493 59.9052797,5.24657889 C59.9052797,6.03125347 60.2081103,6.68017637 60.8167553,7.19036402 C61.346336,7.66176548 62.308532,8.17195313 63.7048351,8.72241876 C65.4129195,9.41012785 66.6675037,10.2141955 67.474555,11.1361136 C68.2786227,12.0550481 68.6799106,13.2052079 68.6799106,14.5776426 Z" id="Shape"></path>
                            <path d="M79.195445,8.21670644 L75.6897696,8.21670644 L75.6897696,15.1668944 C75.6897696,16.9346499 76.3073652,17.8177817 77.5455399,17.8177817 C78.1139069,17.8177817 78.5853083,17.7685531 78.9582525,17.6700958 L79.0462674,20.0852824 C78.4197211,20.3194914 77.5947686,20.4373417 76.5729015,20.4373417 C75.3168254,20.4373417 74.3352363,20.0539551 73.6266424,19.2886736 C72.921032,18.5219003 72.5659891,17.2359888 72.5659891,15.4294471 L72.5659891,8.21372288 L70.4775016,8.21372288 L70.4775016,5.82688005 L72.5659891,5.82688005 L72.5659891,3.20582827 L75.6897696,2.26302536 L75.6897696,5.82688005 L79.195445,5.82688005 L79.195445,8.21670644 Z" id="Shape"></path>
                            <path d="M95.0127541,12.8695582 C95.0127541,15.0699289 94.3832243,16.8764706 93.1271483,18.2891832 C91.8099094,19.7436655 90.061547,20.468669 87.8820612,20.468669 C85.7816395,20.468669 84.1093577,19.7720093 82.8622323,18.3786898 C81.615107,16.9853703 80.9915443,15.2265655 80.9915443,13.1067507 C80.9915443,10.8884786 81.6330083,9.07149452 82.9204116,7.65878192 C84.2048314,6.24457755 85.938276,5.53747536 88.1177619,5.53747536 C90.2181836,5.53747536 91.9083666,6.23413511 93.1838358,7.62894639 C94.4041092,8.98198792 95.0127541,10.7288585 95.0127541,12.8695582 Z M91.7129439,12.9724908 C91.7129439,11.6522683 91.4309981,10.5200098 90.8596476,9.57571507 C90.1928234,8.43301407 89.239578,7.86315534 88.0043868,7.86315534 C86.7259342,7.86315534 85.7547875,8.43450584 85.0879633,9.57571507 C84.5166128,10.5215015 84.234667,11.6716614 84.234667,13.0321618 C84.234667,14.3523843 84.5166128,15.4846428 85.0879633,16.4274458 C85.7756724,17.5701468 86.7363766,18.1400055 87.9760431,18.1400055 C89.1903494,18.1400055 90.1435947,17.5582126 90.8313038,16.3976102 C91.4175721,15.4354142 91.7129439,14.2912214 91.7129439,12.9724908 Z" id="Shape"></path>
                            <path d="M105.350767,8.62694505 C105.036002,8.56876575 104.700352,8.53893022 104.348293,8.53893022 C103.229461,8.53893022 102.36423,8.96110304 101.755585,9.80694047 C101.226004,10.5528289 100.960468,11.4956318 100.960468,12.6338574 L100.960468,20.1449535 L97.7814918,20.1449535 L97.8113273,10.338013 C97.8113273,8.68810789 97.7710493,7.18588869 97.6919852,5.83135538 L100.462215,5.83135538 L100.578573,8.57025753 L100.666588,8.57025753 C101.002238,7.62894639 101.531819,6.87112379 102.256822,6.30275684 C102.965416,5.79107741 103.730698,5.53598358 104.55565,5.53598358 C104.84953,5.53598358 105.115066,5.55686846 105.350767,5.59416288 L105.350767,8.62694505 Z" id="Shape"></path>
                            <path d="M119.574859,12.3101419 C119.574859,12.8800006 119.537564,13.3603527 119.4585,13.75269 L109.917096,13.75269 C109.95439,15.1668944 110.415349,16.2484326 111.301465,16.9943209 C112.105532,17.6611452 113.145301,17.9953031 114.422262,17.9953031 C115.834974,17.9953031 117.123869,17.7700449 118.28298,17.3180365 L118.781233,19.5258661 C117.4267,20.1166097 115.827515,20.4104897 113.982187,20.4104897 C111.762424,20.4104897 110.020028,19.7570915 108.752018,18.4517868 C107.486991,17.1464822 106.852986,15.3936445 106.852986,13.1947655 C106.852986,11.0361645 107.442238,9.23857352 108.622234,7.80497605 C109.857425,6.27441308 111.526723,5.5091316 113.627145,5.5091316 C115.690272,5.5091316 117.252162,6.27441308 118.312815,7.80497605 C119.152686,9.02077411 119.574859,10.5244851 119.574859,12.3101419 Z M116.542076,11.4851893 C116.562961,10.5423864 116.355604,9.7278763 115.924481,9.04016721 C115.374015,8.15554359 114.528178,7.71397767 113.389952,7.71397767 C112.350184,7.71397767 111.504346,8.14510115 110.858407,9.01033168 C110.328826,9.69804077 110.014061,10.5229933 109.917096,11.4836976 L116.542076,11.4836976 L116.542076,11.4851893 Z" id="Shape"></path>
                        </g>
                        <g id="Group" transform="translate(65.146401, 8.950661)" fill="#FFFFFF">
                            <path d="M8.02524944,5.98053306 C8.02524944,7.73635432 7.49865224,9.05806853 6.44694962,9.94567571 C5.47281939,10.7646612 4.08845055,11.1748998 2.29533488,11.1748998 C1.40623593,11.1748998 0.645429775,11.1361136 0.00844109487,11.0585412 L0.00844109487,1.46492479 C0.839360754,1.33066488 1.73442681,1.26204315 2.70109816,1.26204315 C4.40918256,1.26204315 5.69658591,1.63349556 6.56479999,2.37640039 C7.53743844,3.21627071 8.02524944,4.41715101 8.02524944,5.98053306 Z M6.37683612,6.02379459 C6.37683612,4.88556891 6.07549721,4.0128795 5.47281939,3.40423458 C4.87014158,2.79708144 3.98999329,2.49275898 2.83088274,2.49275898 C2.33859641,2.49275898 1.91940713,2.52557807 1.57182315,2.5941998 L1.57182315,9.88749642 C1.76426235,9.91733195 2.11632167,9.93075794 2.6280011,9.93075794 C3.82440607,9.93075794 4.74781589,9.59809172 5.39823056,8.93275928 C6.04864523,8.26742685 6.37683612,7.29777195 6.37683612,6.02379459 Z" id="Shape"></path>
                            <path d="M16.7655695,7.51407958 C16.7655695,8.59561773 16.4567717,9.48173313 15.8391762,10.1769011 C15.191745,10.8914622 14.3339734,11.2479968 13.2628777,11.2479968 C12.2305682,11.2479968 11.4085992,10.9063799 10.7954789,10.2201626 C10.1838504,9.5354371 9.87803619,8.67169835 9.87803619,7.63043817 C9.87803619,6.54144113 10.1928011,5.64786684 10.8253144,4.95419065 C11.4578278,4.26051445 12.3081405,3.91293046 13.3792363,3.91293046 C14.4115458,3.91293046 15.2409737,4.25454734 15.8690117,4.93927288 C16.4657224,5.60460532 16.7655695,6.46386873 16.7655695,7.51407958 Z M15.1440082,7.56479999 C15.1440082,6.91587709 15.0037812,6.35944436 14.7248189,5.89550179 C14.396628,5.33459372 13.9297019,5.05413969 13.3225487,5.05413969 C12.6945107,5.05413969 12.2171422,5.33459372 11.8889513,5.89550179 C11.6084972,6.35944436 11.469762,6.92482776 11.469762,7.59314375 C11.469762,8.24206664 11.609989,8.79849938 11.8889513,9.26244195 C12.2275846,9.82335001 12.6989861,10.103804 13.307631,10.103804 C13.9043417,10.103804 14.3727596,9.81887468 14.7099011,9.24752418 C14.9993058,8.77463095 15.1440082,8.21372288 15.1440082,7.56479999 Z" id="Shape"></path>
                            <path d="M28.4849678,4.05614103 L26.2845971,11.0883767 L24.8524914,11.0883767 L23.9410158,8.03470967 C23.7097904,7.27241174 23.5218265,6.51458914 23.3756324,5.76273365 L23.3472886,5.76273365 C23.2115369,6.53547402 23.0235731,7.29180484 22.7819052,8.03470967 L21.8137421,11.0883767 L20.3652269,11.0883767 L18.2961325,4.05614103 L19.9027761,4.05614103 L20.6978931,7.39921277 C20.8903323,8.18985445 21.0484606,8.94320172 21.1752616,9.65627102 L21.2036054,9.65627102 C21.319964,9.06851097 21.5124032,8.31963903 21.7839066,7.41413053 L22.7819052,4.05763281 L24.0558826,4.05763281 L25.0121115,7.34252525 C25.2433369,8.14360937 25.4313008,8.91485796 25.5760031,9.65776279 L25.6192646,9.65776279 C25.7251808,8.93425106 25.8848009,8.16300247 26.0966332,7.34252525 L26.9499295,4.05763281 L28.4849678,4.05763281 L28.4849678,4.05614103 Z" id="Shape"></path>
                            <path d="M36.589791,11.0883767 L35.0264089,11.0883767 L35.0264089,7.06057944 C35.0264089,5.81942117 34.5550075,5.19884203 33.609221,5.19884203 C33.1452784,5.19884203 32.7708425,5.36890459 32.479946,5.71052147 C32.1920331,6.05213835 32.045839,6.45491807 32.045839,6.91587709 L32.045839,11.0868849 L30.4824569,11.0868849 L30.4824569,6.06556434 C30.4824569,5.44796876 30.4630638,4.77816099 30.4257694,4.05315748 L31.7996958,4.05315748 L31.8727929,5.15259696 L31.9160544,5.15259696 C32.0980511,4.81098008 32.3695545,4.52903427 32.7260892,4.30377597 C33.1497538,4.04122326 33.6241388,3.90845513 34.1432771,3.90845513 C34.7996589,3.90845513 35.3456492,4.12028743 35.7797562,4.54544381 C36.3197794,5.0660739 36.589791,5.8432896 36.589791,6.87559912 L36.589791,11.0883767 L36.589791,11.0883767 Z" id="Shape"></path>
                            <polygon id="Shape" points="40.9010258 11.0883767 39.3391356 11.0883767 39.3391356 0.829427883 40.9010258 0.829427883"></polygon>
                            <path d="M50.1052885,7.51407958 C50.1052885,8.59561773 49.7964907,9.48173313 49.1788951,10.1769011 C48.531464,10.8914622 47.6722006,11.2479968 46.6025967,11.2479968 C45.5687954,11.2479968 44.7468264,10.9063799 44.1351979,10.2201626 C43.5235694,9.5354371 43.2177552,8.67169835 43.2177552,7.63043817 C43.2177552,6.54144113 43.5325201,5.64786684 44.1650334,4.95419065 C44.7975468,4.26051445 45.6478595,3.91293046 46.7174635,3.91293046 C47.7512648,3.91293046 48.5792009,4.25454734 49.2087307,4.93927288 C49.8054414,5.60460532 50.1052885,6.46386873 50.1052885,7.51407958 Z M48.4822354,7.56479999 C48.4822354,6.91587709 48.3420084,6.35944436 48.0630461,5.89550179 C47.736347,5.33459372 47.2679291,5.05413969 46.6622677,5.05413969 C46.0327379,5.05413969 45.5553694,5.33459372 45.2286703,5.89550179 C44.9482162,6.35944436 44.809481,6.92482776 44.809481,7.59314375 C44.809481,8.24206664 44.949708,8.79849938 45.2286703,9.26244195 C45.5673036,9.82335001 46.038705,10.103804 46.64735,10.103804 C47.2440607,10.103804 47.7109868,9.81887468 48.0481283,9.24752418 C48.3390248,8.77463095 48.4822354,8.21372288 48.4822354,7.56479999 Z" id="Shape"></path>
                            <path d="M57.6715803,11.0883767 L56.2678183,11.0883767 L56.1514597,10.2783419 L56.1081982,10.2783419 C55.6278461,10.9242813 54.9431206,11.2479968 54.0540216,11.2479968 C53.3901809,11.2479968 52.8531413,11.0346727 52.4488698,10.6110081 C52.0818927,10.2261297 51.8984042,9.7472694 51.8984042,9.17890245 C51.8984042,8.31963903 52.2564306,7.66474903 52.9769588,7.21124889 C53.6959952,6.75774876 54.7074198,6.53547402 56.0097409,6.54591646 L56.0097409,6.4146401 C56.0097409,5.48824673 55.5234217,5.02579593 54.5492915,5.02579593 C53.8556153,5.02579593 53.2439868,5.20033381 52.7158978,5.54642602 L52.3981494,4.52008361 C53.0515476,4.1158121 53.8585989,3.91293046 54.8103524,3.91293046 C56.6482214,3.91293046 57.5701394,4.88258536 57.5701394,6.82189516 L57.5701394,9.41161963 C57.5701394,10.1142465 57.6044503,10.6736628 57.6715803,11.0883767 Z M56.0485271,8.67169835 L56.0485271,7.58717664 C54.3240332,7.5573411 53.4617862,8.03023434 53.4617862,9.00436457 C53.4617862,9.37134165 53.5602435,9.64582858 53.7616334,9.82931712 C53.9630232,10.0128057 54.2196088,10.103804 54.5254231,10.103804 C54.8685317,10.103804 55.1892637,9.99490434 55.481652,9.77859671 C55.775532,9.5607973 55.956037,9.2848186 56.0231669,8.94618528 C56.0395765,8.87010466 56.0485271,8.7776145 56.0485271,8.67169835 Z" id="Shape"></path>
                            <path d="M66.5551109,11.0883767 L65.1677585,11.0883767 L65.0946615,9.9591017 L65.0513999,9.9591017 C64.6083422,10.8183651 63.8535032,11.2479968 62.7928499,11.2479968 C61.9455207,11.2479968 61.2399103,10.9153306 60.680494,10.2499982 C60.1210777,9.58466573 59.8421155,8.72092698 59.8421155,7.6602737 C59.8421155,6.52204803 60.1449461,5.60012999 60.7535911,4.89601135 C61.3428429,4.23962957 62.0648628,3.91143868 62.9241263,3.91143868 C63.868421,3.91143868 64.5292781,4.22918714 64.9052058,4.86617582 L64.9350413,4.86617582 L64.9350413,0.829427883 L66.4999152,0.829427883 L66.4999152,9.19382022 C66.4999152,9.87854575 66.5178165,10.5095673 66.5551109,11.0883767 Z M64.9350413,8.1227245 L64.9350413,6.95018796 C64.9350413,6.74730632 64.9201236,6.58321088 64.8917798,6.45790163 C64.803765,6.08197388 64.6143093,5.76571721 64.3263964,5.51062338 C64.0355,5.25552955 63.6849324,5.12723675 63.2806609,5.12723675 C62.6973762,5.12723675 62.2408925,5.35846215 61.9052427,5.82240472 C61.5725765,6.2863473 61.4040057,6.87858268 61.4040057,7.60209441 C61.4040057,8.29726238 61.5636259,8.861154 61.8843579,9.29526104 C62.2229912,9.75771184 62.6794749,9.98893724 63.2508254,9.98893724 C63.7639966,9.98893724 64.1742352,9.79649803 64.4860165,9.41012785 C64.7873554,9.0535932 64.9350413,8.62396149 64.9350413,8.1227245 Z" id="Shape"></path>
                            <path d="M79.9259061,7.51407958 C79.9259061,8.59561773 79.6171083,9.48173313 78.9995127,10.1769011 C78.3520816,10.8914622 77.4958017,11.2479968 76.4232142,11.2479968 C75.3923965,11.2479968 74.5704275,10.9063799 73.9558155,10.2201626 C73.344187,9.5354371 73.0383728,8.67169835 73.0383728,7.63043817 C73.0383728,6.54144113 73.3531376,5.64786684 73.985651,4.95419065 C74.6181643,4.26051445 75.4684771,3.91293046 76.5410646,3.91293046 C77.5718823,3.91293046 78.402802,4.25454734 79.0293482,4.93927288 C79.626059,5.60460532 79.9259061,6.46386873 79.9259061,7.51407958 Z M78.3058365,7.56479999 C78.3058365,6.91587709 78.1656095,6.35944436 77.8866472,5.89550179 C77.5569646,5.33459372 77.0915302,5.05413969 76.4828853,5.05413969 C75.8563391,5.05413969 75.3789705,5.33459372 75.0492878,5.89550179 C74.7688338,6.35944436 74.6300986,6.92482776 74.6300986,7.59314375 C74.6300986,8.24206664 74.7703256,8.79849938 75.0492878,9.26244195 C75.3879212,9.82335001 75.8593226,10.103804 76.4679675,10.103804 C77.0646782,10.103804 77.5345879,9.81887468 77.8717295,9.24752418 C78.1596424,8.77463095 78.3058365,8.21372288 78.3058365,7.56479999 Z" id="Shape"></path>
                            <path d="M88.3320682,11.0883767 L86.7701779,11.0883767 L86.7701779,7.06057944 C86.7701779,5.81942117 86.2987764,5.19884203 85.3514982,5.19884203 C84.8875556,5.19884203 84.5131196,5.36890459 84.223715,5.71052147 C83.9343103,6.05213835 83.7896079,6.45491807 83.7896079,6.91587709 L83.7896079,11.0868849 L82.2247341,11.0868849 L82.2247341,6.06556434 C82.2247341,5.44796876 82.2068328,4.77816099 82.1695383,4.05315748 L83.541973,4.05315748 L83.61507,5.15259696 L83.6583316,5.15259696 C83.8418201,4.81098008 84.1133235,4.52903427 84.4683663,4.30377597 C84.8935227,4.04122326 85.366416,3.90845513 85.8870461,3.90845513 C86.5419361,3.90845513 87.0879263,4.12028743 87.5220334,4.54544381 C88.0635484,5.0660739 88.3320682,5.8432896 88.3320682,6.87559912 L88.3320682,11.0883767 L88.3320682,11.0883767 Z" id="Shape"></path>
                            <path d="M98.8535697,5.22718579 L97.1320593,5.22718579 L97.1320593,8.64335459 C97.1320593,9.51156867 97.4378736,9.94567571 98.0435349,9.94567571 C98.323989,9.94567571 98.5567061,9.92180728 98.7401947,9.87257865 L98.7804727,11.0585412 C98.4716749,11.1748998 98.0659116,11.2330791 97.5661664,11.2330791 C96.9485708,11.2330791 96.4682187,11.0451152 96.1206347,10.6691874 C95.7715589,10.2932597 95.5985128,9.66074635 95.5985128,8.77313917 L95.5985128,5.22718579 L94.5706786,5.22718579 L94.5706786,4.05614103 L95.5985128,4.05614103 L95.5985128,2.7672459 L97.1305675,2.30479511 L97.1305675,4.05464925 L98.8520779,4.05464925 L98.8520779,5.22718579 L98.8535697,5.22718579 Z" id="Shape"></path>
                            <path d="M107.129947,11.0883767 L105.565073,11.0883767 L105.565073,7.09041498 C105.565073,5.82986361 105.093672,5.19884203 104.149377,5.19884203 C103.424374,5.19884203 102.929104,5.56432734 102.6576,6.29529796 C102.611355,6.44895097 102.584503,6.63691484 102.584503,6.8576978 L102.584503,11.0868849 L101.022613,11.0868849 L101.022613,0.829427883 L102.584503,0.829427883 L102.584503,5.06756568 L102.614339,5.06756568 C103.106625,4.29631709 103.812236,3.91143868 104.726695,3.91143868 C105.374126,3.91143868 105.909674,4.12327099 106.33483,4.54842736 C106.864411,5.07800812 107.129947,5.86566625 107.129947,6.90692643 L107.129947,11.0883767 L107.129947,11.0883767 Z" id="Shape"></path>
                            <path d="M115.667386,7.23959265 C115.667386,7.52004669 115.646501,7.75574741 115.609206,7.94818662 L110.920552,7.94818662 C110.941437,8.64335459 111.165203,9.17293534 111.59931,9.53991243 C111.996123,9.86810332 112.507802,10.0321988 113.134349,10.0321988 C113.828025,10.0321988 114.460538,9.92180728 115.030397,9.69953254 L115.275048,10.785546 C114.608224,11.0749507 113.82355,11.2196531 112.915058,11.2196531 C111.82606,11.2196531 110.968289,10.8989211 110.34771,10.2574571 C109.724147,9.61599304 109.415349,8.75523785 109.415349,7.67519147 C109.415349,6.61453819 109.703262,5.73140634 110.283563,5.02728771 C110.889225,4.27543222 111.70821,3.89950447 112.742011,3.89950447 C113.753436,3.89950447 114.521701,4.27543222 115.040839,5.02728771 C115.460029,5.62399841 115.667386,6.36242791 115.667386,7.23959265 Z M114.175609,6.83532115 C114.187543,6.37137857 114.084611,5.9715824 113.872778,5.63444085 C113.601275,5.20033381 113.188053,4.9825344 112.628636,4.9825344 C112.118449,4.9825344 111.702243,5.1943667 111.384495,5.61952308 C111.124925,5.95815641 110.971272,6.36242791 110.920552,6.83532115 L114.175609,6.83532115 Z" id="Shape"></path>
                        </g>
                    </g>
                </g>
            </g>
        </g>
    </g>
</svg>